<svg data-v-423bf9ae="" xmlns="http://www.w3.org/2000/svg" viewBox="0 0 462 90" class="iconLeft"><!----><!----><!----><g data-v-423bf9ae="" id="c2d554c9-1637-43d8-b65e-b149093787bd" fill="#ffffff" transform="matrix(6.4935059841510485,0,0,6.4935059841510485,100.19480542209743,-9.545453626403159)"><path d="M7.45 13.02L4.28 8.37L2.63 10.05L2.63 13.02L1.51 13.02L1.51 3.78L2.63 3.78L2.63 8.54L7.28 3.78L8.75 3.78L5.07 7.55L8.79 13.02L7.45 13.02ZM16.87 13.02L15.89 10.46L11.70 10.46L10.72 13.02L9.55 13.02L13.15 3.78L14.48 3.78L18.06 13.02L16.87 13.02ZM12.11 9.41L15.48 9.41L14.24 6.13L13.80 4.84L13.78 4.84L13.37 6.09L12.11 9.41ZM27.19 3.78L27.19 13.02L25.80 13.02L21.94 6.83L20.96 5.01L20.94 5.01L21 6.50L21 13.02L19.94 13.02L19.94 3.78L21.32 3.78L25.17 9.94L26.17 11.79L26.18 11.79L26.12 10.30L26.12 3.78L27.19 3.78ZM30.21 13.02L30.21 3.78L33.50 3.78L33.50 3.78Q35.10 3.78 35.88 4.44L35.88 4.44L35.88 4.44Q36.65 5.11 36.65 6.33L36.65 6.33L36.65 6.33Q36.65 7.06 36.24 7.62L36.24 7.62L36.24 7.62Q35.83 8.18 35.10 8.32L35.10 8.32L35.10 8.33L35.10 8.33Q35.91 8.48 36.40 9.07L36.40 9.07L36.40 9.07Q36.89 9.66 36.89 10.43L36.89 10.43L36.89 10.43Q36.89 11.62 35.99 12.32L35.99 12.32L35.99 12.32Q35.10 13.02 33.49 13.02L33.49 13.02L30.21 13.02ZM31.33 7.84L33.52 7.84L33.52 7.84Q34.51 7.84 34.99 7.47L34.99 7.47L34.99 7.47Q35.48 7.10 35.48 6.33L35.48 6.33L35.48 6.33Q35.48 4.83 33.52 4.83L33.52 4.83L31.33 4.83L31.33 7.84ZM31.33 11.97L33.75 11.97L33.75 11.97Q34.73 11.97 35.22 11.57L35.22 11.57L35.22 11.57Q35.71 11.17 35.71 10.43L35.71 10.43L35.71 10.43Q35.71 9.69 35.22 9.29L35.22 9.29L35.22 9.29Q34.73 8.89 33.75 8.89L33.75 8.89L31.33 8.89L31.33 11.97ZM45.39 13.02L44.41 10.46L40.22 10.46L39.24 13.02L38.07 13.02L41.66 3.78L42.99 3.78L46.58 13.02L45.39 13.02ZM40.63 9.41L44.00 9.41L42.76 6.13L42.32 4.84L42.29 4.84L41.89 6.09L40.63 9.41ZM55.71 3.78L55.71 13.02L54.32 13.02L50.46 6.83L49.48 5.01L49.46 5.01L49.52 6.50L49.52 13.02L48.45 13.02L48.45 3.78L49.84 3.78L53.69 9.94L54.68 11.79L54.70 11.79L54.64 10.30L54.64 3.78L55.71 3.78Z"></path></g><!----><g data-v-423bf9ae="" id="deb8c5dc-ebee-45ee-a3e2-c0d7b3bbf299" transform="matrix(2.8125,0,0,2.8125,0,0)" stroke="none" fill="#7fe7ff"><path d="M9.571 20.464l8.064 4.47 8.065-4.47v-8.939l-8.065-4.469-8.064 4.469z"></path><path d="M32 0H0v32h32l-5.054-5.172H5.054V5.172h21.892z"></path></g><!----></svg>